<svg width="56" height="60" viewBox="0 0 56 60" fill="none" xmlns="http://www.w3.org/2000/svg">
<g clip-path="url(#clip0_1_299)">
<path d="M25.7503 32.0715C26.3486 32.0715 26.8337 31.6558 26.8337 31.1429C26.8337 30.6301 26.3486 30.2144 25.7503 30.2144C25.152 30.2144 24.667 30.6301 24.667 31.1429C24.667 31.6558 25.152 32.0715 25.7503 32.0715Z" stroke="#333232" stroke-linecap="round" stroke-linejoin="round"/>
<path d="M37.6663 32.0715C38.2647 32.0715 38.7497 31.6558 38.7497 31.1429C38.7497 30.6301 38.2647 30.2144 37.6663 30.2144C37.068 30.2144 36.583 30.6301 36.583 31.1429C36.583 31.6558 37.068 32.0715 37.6663 32.0715Z" stroke="#333232" stroke-linecap="round" stroke-linejoin="round"/>
<path d="M17.083 7.92871H21.4163L24.3197 22.8486C24.4187 23.3616 24.6901 23.8225 25.0862 24.1504C25.4823 24.4783 25.9779 24.6526 26.4863 24.6426H37.0163C37.5247 24.6526 38.0204 24.4783 38.4165 24.1504C38.8126 23.8225 39.084 23.3616 39.183 22.8486L40.9163 13.5H22.4997" stroke="#333232" stroke-linecap="round" stroke-linejoin="round"/>
</g>
<path d="M2.53613 46.0469V56H1.2168V46.0469H2.53613ZM8.66797 46.0469L4.34766 51.5225H2.00977L1.80469 50.4287H3.56152L7.03418 46.0469H8.66797ZM7.3418 56L3.60254 51.3516L4.34082 50.1963L8.95508 56H7.3418ZM9.43359 52.3838V52.2266C9.43359 51.6934 9.51107 51.1989 9.66602 50.7432C9.82096 50.2829 10.0443 49.8841 10.3359 49.5469C10.6276 49.2051 10.9808 48.9408 11.3955 48.7539C11.8102 48.5625 12.2751 48.4668 12.79 48.4668C13.3096 48.4668 13.7767 48.5625 14.1914 48.7539C14.6107 48.9408 14.9661 49.2051 15.2578 49.5469C15.554 49.8841 15.7796 50.2829 15.9346 50.7432C16.0895 51.1989 16.167 51.6934 16.167 52.2266V52.3838C16.167 52.917 16.0895 53.4115 15.9346 53.8672C15.7796 54.3229 15.554 54.7217 15.2578 55.0635C14.9661 55.4007 14.613 55.665 14.1982 55.8564C13.7881 56.0433 13.3232 56.1367 12.8037 56.1367C12.2842 56.1367 11.8171 56.0433 11.4023 55.8564C10.9876 55.665 10.6322 55.4007 10.3359 55.0635C10.0443 54.7217 9.82096 54.3229 9.66602 53.8672C9.51107 53.4115 9.43359 52.917 9.43359 52.3838ZM10.6982 52.2266V52.3838C10.6982 52.7529 10.7415 53.1016 10.8281 53.4297C10.9147 53.7533 11.0446 54.0404 11.2178 54.291C11.3955 54.5417 11.6165 54.7399 11.8809 54.8857C12.1452 55.027 12.4528 55.0977 12.8037 55.0977C13.1501 55.0977 13.4531 55.027 13.7129 54.8857C13.9772 54.7399 14.196 54.5417 14.3691 54.291C14.5423 54.0404 14.6722 53.7533 14.7588 53.4297C14.8499 53.1016 14.8955 52.7529 14.8955 52.3838V52.2266C14.8955 51.862 14.8499 51.5179 14.7588 51.1943C14.6722 50.8662 14.54 50.5768 14.3623 50.3262C14.1891 50.071 13.9704 49.8704 13.7061 49.7246C13.4463 49.5788 13.141 49.5059 12.79 49.5059C12.4437 49.5059 12.1383 49.5788 11.874 49.7246C11.6143 49.8704 11.3955 50.071 11.2178 50.3262C11.0446 50.5768 10.9147 50.8662 10.8281 51.1943C10.7415 51.5179 10.6982 51.862 10.6982 52.2266ZM19.0176 50.0254V58.8438H17.7461V48.6035H18.9082L19.0176 50.0254ZM24.001 52.2402V52.3838C24.001 52.9215 23.9372 53.4206 23.8096 53.8809C23.682 54.3366 23.4951 54.7331 23.249 55.0703C23.0075 55.4076 22.709 55.6696 22.3535 55.8564C21.998 56.0433 21.5902 56.1367 21.1299 56.1367C20.6605 56.1367 20.2458 56.0592 19.8857 55.9043C19.5257 55.7493 19.2204 55.5238 18.9697 55.2275C18.7191 54.9313 18.5186 54.5758 18.3682 54.1611C18.2223 53.7464 18.1221 53.2793 18.0674 52.7598V51.9941C18.1221 51.4473 18.2246 50.9574 18.375 50.5244C18.5254 50.0915 18.7236 49.7223 18.9697 49.417C19.2204 49.1071 19.5234 48.8724 19.8789 48.7129C20.2344 48.5488 20.6445 48.4668 21.1094 48.4668C21.5742 48.4668 21.9867 48.5579 22.3467 48.7402C22.7067 48.918 23.0098 49.1732 23.2559 49.5059C23.502 49.8385 23.6865 50.2373 23.8096 50.7021C23.9372 51.1624 24.001 51.6751 24.001 52.2402ZM22.7295 52.3838V52.2402C22.7295 51.8711 22.6908 51.5247 22.6133 51.2012C22.5358 50.873 22.415 50.5859 22.251 50.3398C22.0915 50.0892 21.8864 49.8932 21.6357 49.752C21.3851 49.6061 21.0866 49.5332 20.7402 49.5332C20.4212 49.5332 20.1432 49.5879 19.9062 49.6973C19.6738 49.8066 19.4756 49.9548 19.3115 50.1416C19.1475 50.3239 19.013 50.5335 18.9082 50.7705C18.8079 51.0029 18.7327 51.2445 18.6826 51.4951V53.2656C18.7738 53.5846 18.9014 53.8854 19.0654 54.168C19.2295 54.446 19.4482 54.6715 19.7217 54.8447C19.9951 55.0133 20.3392 55.0977 20.7539 55.0977C21.0957 55.0977 21.3896 55.027 21.6357 54.8857C21.8864 54.7399 22.0915 54.5417 22.251 54.291C22.415 54.0404 22.5358 53.7533 22.6133 53.4297C22.6908 53.1016 22.7295 52.7529 22.7295 52.3838ZM28.376 52.4658H27.0156V51.6865H28.2734C28.6243 51.6865 28.9023 51.6432 29.1074 51.5566C29.3125 51.4655 29.4583 51.3402 29.5449 51.1807C29.6315 51.0212 29.6748 50.8343 29.6748 50.6201C29.6748 50.4287 29.6247 50.2487 29.5244 50.0801C29.4287 49.9069 29.2738 49.7679 29.0596 49.6631C28.8454 49.5537 28.5583 49.499 28.1982 49.499C27.9066 49.499 27.6423 49.5514 27.4053 49.6562C27.1683 49.7565 26.9792 49.8955 26.8379 50.0732C26.7012 50.2464 26.6328 50.4424 26.6328 50.6611H25.3682C25.3682 50.21 25.4958 49.8226 25.751 49.499C26.0107 49.1709 26.3548 48.918 26.7832 48.7402C27.2161 48.5625 27.6878 48.4736 28.1982 48.4736C28.6266 48.4736 29.0094 48.5215 29.3467 48.6172C29.6885 48.7083 29.9779 48.8451 30.2148 49.0273C30.4518 49.2051 30.6318 49.4284 30.7549 49.6973C30.8825 49.9616 30.9463 50.2692 30.9463 50.6201C30.9463 50.8708 30.887 51.1077 30.7686 51.3311C30.6501 51.5544 30.4792 51.7526 30.2559 51.9258C30.0326 52.0944 29.7614 52.2266 29.4424 52.3223C29.1279 52.418 28.7725 52.4658 28.376 52.4658ZM27.0156 51.9873H28.376C28.818 51.9873 29.2077 52.0306 29.5449 52.1172C29.8822 52.1992 30.1647 52.3223 30.3926 52.4863C30.6204 52.6504 30.7913 52.8532 30.9053 53.0947C31.0238 53.3317 31.083 53.6051 31.083 53.915C31.083 54.2614 31.0124 54.5736 30.8711 54.8516C30.7344 55.125 30.5384 55.3574 30.2832 55.5488C30.028 55.7402 29.7227 55.8861 29.3672 55.9863C29.0163 56.0866 28.6266 56.1367 28.1982 56.1367C27.7197 56.1367 27.2549 56.0547 26.8037 55.8906C26.3525 55.7266 25.9811 55.4736 25.6895 55.1318C25.3978 54.7855 25.252 54.3457 25.252 53.8125H26.5166C26.5166 54.0358 26.5872 54.2477 26.7285 54.4482C26.8698 54.6488 27.0658 54.8105 27.3164 54.9336C27.5716 55.0566 27.8656 55.1182 28.1982 55.1182C28.5537 55.1182 28.8499 55.0635 29.0869 54.9541C29.3239 54.8447 29.5016 54.6989 29.6201 54.5166C29.7432 54.3343 29.8047 54.1361 29.8047 53.9219C29.8047 53.6439 29.75 53.4206 29.6406 53.252C29.5312 53.0833 29.3626 52.9603 29.1348 52.8828C28.9115 52.8008 28.6243 52.7598 28.2734 52.7598H27.0156V51.9873ZM34.0908 53.9971L37.502 48.6035H38.7734V56H37.502V50.6064L34.0908 56H32.833V48.6035H34.0908V53.9971ZM45.8213 51.8096V52.835H41.9111V51.8096H45.8213ZM42.1777 48.6035V56H40.9131V48.6035H42.1777ZM46.8467 48.6035V56H45.5752V48.6035H46.8467ZM53.2451 54.7354V50.9277C53.2451 50.6361 53.1859 50.3831 53.0674 50.1689C52.9535 49.9502 52.7803 49.7816 52.5479 49.6631C52.3154 49.5446 52.0283 49.4854 51.6865 49.4854C51.3675 49.4854 51.0872 49.54 50.8457 49.6494C50.6087 49.7588 50.4219 49.9023 50.2852 50.0801C50.153 50.2578 50.0869 50.4492 50.0869 50.6543H48.8223C48.8223 50.39 48.8906 50.1279 49.0273 49.8682C49.1641 49.6084 49.36 49.3737 49.6152 49.1641C49.875 48.9499 50.1849 48.7812 50.5449 48.6582C50.9095 48.5306 51.3151 48.4668 51.7617 48.4668C52.2995 48.4668 52.7734 48.5579 53.1836 48.7402C53.5983 48.9225 53.9219 49.1982 54.1543 49.5674C54.3913 49.932 54.5098 50.39 54.5098 50.9414V54.3867C54.5098 54.6328 54.5303 54.8949 54.5713 55.1729C54.6169 55.4508 54.6829 55.6901 54.7695 55.8906V56H53.4502C53.3864 55.8542 53.3363 55.6605 53.2998 55.4189C53.2633 55.1729 53.2451 54.945 53.2451 54.7354ZM53.4639 51.5156L53.4775 52.4043H52.1992C51.8392 52.4043 51.5179 52.4339 51.2354 52.4932C50.9528 52.5479 50.7158 52.6322 50.5244 52.7461C50.333 52.86 50.1872 53.0036 50.0869 53.1768C49.9867 53.3454 49.9365 53.5436 49.9365 53.7715C49.9365 54.0039 49.9889 54.2158 50.0938 54.4072C50.1986 54.5986 50.3558 54.7513 50.5654 54.8652C50.7796 54.9746 51.0417 55.0293 51.3516 55.0293C51.7389 55.0293 52.0807 54.9473 52.377 54.7832C52.6732 54.6191 52.9079 54.4186 53.0811 54.1816C53.2588 53.9447 53.3545 53.7145 53.3682 53.4912L53.9082 54.0996C53.8763 54.291 53.7897 54.5029 53.6484 54.7354C53.5072 54.9678 53.318 55.1911 53.0811 55.4053C52.8486 55.6149 52.5706 55.7904 52.2471 55.9316C51.9281 56.0684 51.568 56.1367 51.167 56.1367C50.6657 56.1367 50.2259 56.0387 49.8477 55.8428C49.474 55.6468 49.1823 55.3848 48.9727 55.0566C48.7676 54.724 48.665 54.3525 48.665 53.9424C48.665 53.5459 48.7425 53.1973 48.8975 52.8965C49.0524 52.5911 49.2757 52.3382 49.5674 52.1377C49.859 51.9326 50.21 51.7777 50.6201 51.6729C51.0303 51.568 51.4883 51.5156 51.9941 51.5156H53.4639Z" fill="#333232"/>
<rect x="35" y="4" width="18" height="18" rx="9" fill="#2CB708"/>
<path d="M42.9209 12.6162L42.1982 12.4307L42.5547 8.89062H46.2021V9.72559H43.3213L43.1064 11.6592C43.2367 11.5843 43.401 11.5143 43.5996 11.4492C43.8014 11.3841 44.0326 11.3516 44.293 11.3516C44.6217 11.3516 44.9163 11.4085 45.1768 11.5225C45.4372 11.6331 45.6585 11.7926 45.8408 12.001C46.0264 12.2093 46.168 12.46 46.2656 12.7529C46.3633 13.0459 46.4121 13.373 46.4121 13.7344C46.4121 14.0762 46.3649 14.3903 46.2705 14.6768C46.1794 14.9632 46.041 15.2139 45.8555 15.4287C45.6699 15.6403 45.4355 15.8047 45.1523 15.9219C44.8724 16.0391 44.542 16.0977 44.1611 16.0977C43.8747 16.0977 43.6029 16.0586 43.3457 15.9805C43.0918 15.8991 42.8639 15.777 42.6621 15.6143C42.4635 15.4482 42.3008 15.2432 42.1738 14.999C42.0501 14.7516 41.972 14.4619 41.9395 14.1299H42.7988C42.8379 14.3968 42.916 14.6214 43.0332 14.8037C43.1504 14.986 43.3034 15.1243 43.4922 15.2188C43.6842 15.3099 43.9072 15.3555 44.1611 15.3555C44.376 15.3555 44.5664 15.318 44.7324 15.2432C44.8984 15.1683 45.0384 15.0609 45.1523 14.9209C45.2663 14.7809 45.3525 14.6117 45.4111 14.4131C45.473 14.2145 45.5039 13.9915 45.5039 13.7441C45.5039 13.5195 45.473 13.3112 45.4111 13.1191C45.3493 12.9271 45.2565 12.7594 45.1328 12.6162C45.0124 12.473 44.8643 12.3623 44.6885 12.2842C44.5127 12.2028 44.3109 12.1621 44.083 12.1621C43.7803 12.1621 43.5508 12.2028 43.3945 12.2842C43.2415 12.3656 43.0837 12.4762 42.9209 12.6162Z" fill="white"/>
<defs>
<clipPath id="clip0_1_299">
<rect width="26" height="26" fill="white" transform="translate(16 7)"/>
</clipPath>
</defs>
</svg>
