<svg width="75" height="60" viewBox="0 0 75 60" fill="none" xmlns="http://www.w3.org/2000/svg">
<path d="M42.6285 10.8521C40.4693 10.8521 38.5691 11.9346 37.458 13.5752C36.3469 11.9346 34.4467 10.8521 32.2876 10.8521C28.8611 10.8521 26.083 13.5752 26.083 16.9339C26.083 24.0294 34.3557 27.5772 37.458 30.1113C40.5603 27.5772 48.833 24.0294 48.833 16.9339C48.833 13.5752 46.0549 10.8521 42.6285 10.8521Z" stroke="#333232" stroke-miterlimit="10" stroke-linecap="round"/>
<path d="M2.5293 53.7168L7.43066 46.0469H8.75V56H7.43066V48.3232L2.5293 56H1.2168V46.0469H2.5293V53.7168ZM13.7197 52.4658H12.3594V51.6865H13.6172C13.9681 51.6865 14.2461 51.6432 14.4512 51.5566C14.6562 51.4655 14.8021 51.3402 14.8887 51.1807C14.9753 51.0212 15.0186 50.8343 15.0186 50.6201C15.0186 50.4287 14.9684 50.2487 14.8682 50.0801C14.7725 49.9069 14.6175 49.7679 14.4033 49.6631C14.1891 49.5537 13.902 49.499 13.542 49.499C13.2503 49.499 12.986 49.5514 12.749 49.6562C12.512 49.7565 12.3229 49.8955 12.1816 50.0732C12.0449 50.2464 11.9766 50.4424 11.9766 50.6611H10.7119C10.7119 50.21 10.8395 49.8226 11.0947 49.499C11.3545 49.1709 11.6986 48.918 12.127 48.7402C12.5599 48.5625 13.0316 48.4736 13.542 48.4736C13.9704 48.4736 14.3532 48.5215 14.6904 48.6172C15.0322 48.7083 15.3216 48.8451 15.5586 49.0273C15.7956 49.2051 15.9756 49.4284 16.0986 49.6973C16.2262 49.9616 16.29 50.2692 16.29 50.6201C16.29 50.8708 16.2308 51.1077 16.1123 51.3311C15.9938 51.5544 15.8229 51.7526 15.5996 51.9258C15.3763 52.0944 15.1051 52.2266 14.7861 52.3223C14.4717 52.418 14.1162 52.4658 13.7197 52.4658ZM12.3594 51.9873H13.7197C14.1618 51.9873 14.5514 52.0306 14.8887 52.1172C15.2259 52.1992 15.5085 52.3223 15.7363 52.4863C15.9642 52.6504 16.1351 52.8532 16.249 53.0947C16.3675 53.3317 16.4268 53.6051 16.4268 53.915C16.4268 54.2614 16.3561 54.5736 16.2148 54.8516C16.0781 55.125 15.8822 55.3574 15.627 55.5488C15.3717 55.7402 15.0664 55.8861 14.7109 55.9863C14.36 56.0866 13.9704 56.1367 13.542 56.1367C13.0635 56.1367 12.5986 56.0547 12.1475 55.8906C11.6963 55.7266 11.3249 55.4736 11.0332 55.1318C10.7415 54.7855 10.5957 54.3457 10.5957 53.8125H11.8604C11.8604 54.0358 11.931 54.2477 12.0723 54.4482C12.2135 54.6488 12.4095 54.8105 12.6602 54.9336C12.9154 55.0566 13.2093 55.1182 13.542 55.1182C13.8975 55.1182 14.1937 55.0635 14.4307 54.9541C14.6676 54.8447 14.8454 54.6989 14.9639 54.5166C15.0869 54.3343 15.1484 54.1361 15.1484 53.9219C15.1484 53.6439 15.0938 53.4206 14.9844 53.252C14.875 53.0833 14.7064 52.9603 14.4785 52.8828C14.2552 52.8008 13.9681 52.7598 13.6172 52.7598H12.3594V51.9873ZM22.8115 45.3838H23.8506C23.8506 45.8304 23.7822 46.1859 23.6455 46.4502C23.5088 46.71 23.3219 46.9105 23.085 47.0518C22.8525 47.193 22.5882 47.3001 22.292 47.373C22.0003 47.446 21.6973 47.5166 21.3828 47.585C20.9909 47.667 20.6263 47.7969 20.2891 47.9746C19.9564 48.1478 19.6693 48.3939 19.4277 48.7129C19.1908 49.0319 19.0153 49.4466 18.9014 49.957C18.792 50.4674 18.7624 51.0986 18.8125 51.8506V52.4795H17.7734V51.8506C17.7734 51.0075 17.8532 50.2715 18.0127 49.6426C18.1768 49.0137 18.4069 48.4827 18.7031 48.0498C18.9993 47.6169 19.3503 47.2728 19.7559 47.0176C20.166 46.7624 20.6172 46.5869 21.1094 46.4912C21.4648 46.4229 21.7702 46.3499 22.0254 46.2725C22.2806 46.1904 22.4743 46.0811 22.6064 45.9443C22.7432 45.8076 22.8115 45.6208 22.8115 45.3838ZM21.3145 49.0273C21.7975 49.0273 22.2282 49.1117 22.6064 49.2803C22.9847 49.4489 23.306 49.6836 23.5703 49.9844C23.8346 50.2852 24.0352 50.6406 24.1719 51.0508C24.3132 51.4564 24.3838 51.8984 24.3838 52.377V52.5273C24.3838 53.0423 24.3086 53.5208 24.1582 53.9629C24.0124 54.4004 23.7959 54.7832 23.5088 55.1113C23.2262 55.4349 22.8799 55.6878 22.4697 55.8701C22.0641 56.0524 21.6016 56.1436 21.082 56.1436C20.5625 56.1436 20.0977 56.0524 19.6875 55.8701C19.2819 55.6878 18.9355 55.4349 18.6484 55.1113C18.3613 54.7832 18.1426 54.4004 17.9922 53.9629C17.8464 53.5208 17.7734 53.0423 17.7734 52.5273V52.377C17.7734 52.263 17.7939 52.1514 17.835 52.042C17.876 51.9326 17.9261 51.821 17.9854 51.707C18.0492 51.5931 18.1061 51.4723 18.1562 51.3447C18.3249 50.9346 18.555 50.554 18.8467 50.2031C19.1429 49.8522 19.4961 49.5697 19.9062 49.3555C20.321 49.1367 20.7904 49.0273 21.3145 49.0273ZM21.0684 50.0596C20.6035 50.0596 20.2207 50.1667 19.9199 50.3809C19.6237 50.5951 19.4027 50.8799 19.2568 51.2354C19.111 51.5863 19.0381 51.9668 19.0381 52.377V52.5273C19.0381 52.8737 19.0791 53.2018 19.1611 53.5117C19.2432 53.8216 19.3662 54.0973 19.5303 54.3389C19.6989 54.5758 19.9108 54.7627 20.166 54.8994C20.4258 55.0361 20.7311 55.1045 21.082 55.1045C21.4329 55.1045 21.736 55.0361 21.9912 54.8994C22.2464 54.7627 22.4561 54.5758 22.6201 54.3389C22.7842 54.0973 22.9072 53.8216 22.9893 53.5117C23.0713 53.2018 23.1123 52.8737 23.1123 52.5273V52.377C23.1123 52.0671 23.0713 51.7731 22.9893 51.4951C22.9072 51.2171 22.7819 50.971 22.6133 50.7568C22.4492 50.5426 22.2373 50.374 21.9775 50.251C21.7223 50.1234 21.4193 50.0596 21.0684 50.0596ZM26.9609 50.0254V58.8438H25.6895V48.6035H26.8516L26.9609 50.0254ZM31.9443 52.2402V52.3838C31.9443 52.9215 31.8805 53.4206 31.7529 53.8809C31.6253 54.3366 31.4385 54.7331 31.1924 55.0703C30.9508 55.4076 30.6523 55.6696 30.2969 55.8564C29.9414 56.0433 29.5335 56.1367 29.0732 56.1367C28.6038 56.1367 28.1891 56.0592 27.8291 55.9043C27.4691 55.7493 27.1637 55.5238 26.9131 55.2275C26.6624 54.9313 26.4619 54.5758 26.3115 54.1611C26.1657 53.7464 26.0654 53.2793 26.0107 52.7598V51.9941C26.0654 51.4473 26.168 50.9574 26.3184 50.5244C26.4688 50.0915 26.667 49.7223 26.9131 49.417C27.1637 49.1071 27.4668 48.8724 27.8223 48.7129C28.1777 48.5488 28.5879 48.4668 29.0527 48.4668C29.5176 48.4668 29.93 48.5579 30.29 48.7402C30.6501 48.918 30.9531 49.1732 31.1992 49.5059C31.4453 49.8385 31.6299 50.2373 31.7529 50.7021C31.8805 51.1624 31.9443 51.6751 31.9443 52.2402ZM30.6729 52.3838V52.2402C30.6729 51.8711 30.6341 51.5247 30.5566 51.2012C30.4792 50.873 30.3584 50.5859 30.1943 50.3398C30.0348 50.0892 29.8298 49.8932 29.5791 49.752C29.3285 49.6061 29.0299 49.5332 28.6836 49.5332C28.3646 49.5332 28.0866 49.5879 27.8496 49.6973C27.6172 49.8066 27.4189 49.9548 27.2549 50.1416C27.0908 50.3239 26.9564 50.5335 26.8516 50.7705C26.7513 51.0029 26.6761 51.2445 26.626 51.4951V53.2656C26.7171 53.5846 26.8447 53.8854 27.0088 54.168C27.1729 54.446 27.3916 54.6715 27.665 54.8447C27.9385 55.0133 28.2826 55.0977 28.6973 55.0977C29.0391 55.0977 29.333 55.027 29.5791 54.8857C29.8298 54.7399 30.0348 54.5417 30.1943 54.291C30.3584 54.0404 30.4792 53.7533 30.5566 53.4297C30.6341 53.1016 30.6729 52.7529 30.6729 52.3838ZM37.9189 54.7354V50.9277C37.9189 50.6361 37.8597 50.3831 37.7412 50.1689C37.6273 49.9502 37.4541 49.7816 37.2217 49.6631C36.9893 49.5446 36.7021 49.4854 36.3604 49.4854C36.0413 49.4854 35.7611 49.54 35.5195 49.6494C35.2826 49.7588 35.0957 49.9023 34.959 50.0801C34.8268 50.2578 34.7607 50.4492 34.7607 50.6543H33.4961C33.4961 50.39 33.5645 50.1279 33.7012 49.8682C33.8379 49.6084 34.0339 49.3737 34.2891 49.1641C34.5488 48.9499 34.8587 48.7812 35.2188 48.6582C35.5833 48.5306 35.9889 48.4668 36.4355 48.4668C36.9733 48.4668 37.4473 48.5579 37.8574 48.7402C38.2721 48.9225 38.5957 49.1982 38.8281 49.5674C39.0651 49.932 39.1836 50.39 39.1836 50.9414V54.3867C39.1836 54.6328 39.2041 54.8949 39.2451 55.1729C39.2907 55.4508 39.3568 55.6901 39.4434 55.8906V56H38.124C38.0602 55.8542 38.0101 55.6605 37.9736 55.4189C37.9372 55.1729 37.9189 54.945 37.9189 54.7354ZM38.1377 51.5156L38.1514 52.4043H36.873C36.513 52.4043 36.1917 52.4339 35.9092 52.4932C35.6266 52.5479 35.3896 52.6322 35.1982 52.7461C35.0068 52.86 34.861 53.0036 34.7607 53.1768C34.6605 53.3454 34.6104 53.5436 34.6104 53.7715C34.6104 54.0039 34.6628 54.2158 34.7676 54.4072C34.8724 54.5986 35.0296 54.7513 35.2393 54.8652C35.4535 54.9746 35.7155 55.0293 36.0254 55.0293C36.4128 55.0293 36.7546 54.9473 37.0508 54.7832C37.347 54.6191 37.5817 54.4186 37.7549 54.1816C37.9326 53.9447 38.0283 53.7145 38.042 53.4912L38.582 54.0996C38.5501 54.291 38.4635 54.5029 38.3223 54.7354C38.181 54.9678 37.9919 55.1911 37.7549 55.4053C37.5225 55.6149 37.2445 55.7904 36.9209 55.9316C36.6019 56.0684 36.2419 56.1367 35.8408 56.1367C35.3395 56.1367 34.8997 56.0387 34.5215 55.8428C34.1478 55.6468 33.8561 55.3848 33.6465 55.0566C33.4414 54.724 33.3389 54.3525 33.3389 53.9424C33.3389 53.5459 33.4163 53.1973 33.5713 52.8965C33.7262 52.5911 33.9495 52.3382 34.2412 52.1377C34.5329 51.9326 34.8838 51.7777 35.2939 51.6729C35.7041 51.568 36.1621 51.5156 36.668 51.5156H38.1377ZM46.1904 51.8096V52.835H42.2803V51.8096H46.1904ZM42.5469 48.6035V56H41.2822V48.6035H42.5469ZM47.2158 48.6035V56H45.9443V48.6035H47.2158ZM54.2705 51.8096V52.835H50.3604V51.8096H54.2705ZM50.627 48.6035V56H49.3623V48.6035H50.627ZM55.2959 48.6035V56H54.0244V48.6035H55.2959ZM58.3721 51.1465H60.5938C61.1908 51.1465 61.6943 51.2513 62.1045 51.4609C62.5146 51.666 62.8245 51.9508 63.0342 52.3154C63.2484 52.6755 63.3555 53.0856 63.3555 53.5459C63.3555 53.8877 63.2962 54.209 63.1777 54.5098C63.0592 54.806 62.8815 55.0658 62.6445 55.2891C62.4121 55.5124 62.1227 55.6878 61.7764 55.8154C61.4346 55.9385 61.0404 56 60.5938 56H57.4492V48.6035H58.7139V54.9609H60.5938C60.9583 54.9609 61.25 54.8949 61.4688 54.7627C61.6875 54.6305 61.8447 54.4596 61.9404 54.25C62.0361 54.0404 62.084 53.8216 62.084 53.5938C62.084 53.3704 62.0361 53.1517 61.9404 52.9375C61.8447 52.7233 61.6875 52.5456 61.4688 52.4043C61.25 52.2585 60.9583 52.1855 60.5938 52.1855H58.3721V51.1465ZM65.9873 48.6035V56H64.7227V48.6035H65.9873ZM71.2715 56.1367C70.7565 56.1367 70.2894 56.0501 69.8701 55.877C69.4554 55.6992 69.0977 55.4508 68.7969 55.1318C68.5007 54.8128 68.2728 54.4346 68.1133 53.9971C67.9538 53.5596 67.874 53.0811 67.874 52.5615V52.2744C67.874 51.6729 67.9629 51.1374 68.1406 50.668C68.3184 50.194 68.5599 49.793 68.8652 49.4648C69.1706 49.1367 69.5169 48.8883 69.9043 48.7197C70.2917 48.5511 70.6927 48.4668 71.1074 48.4668C71.6361 48.4668 72.0918 48.5579 72.4746 48.7402C72.862 48.9225 73.1787 49.1777 73.4248 49.5059C73.6709 49.8294 73.8532 50.2122 73.9717 50.6543C74.0902 51.0918 74.1494 51.5703 74.1494 52.0898V52.6572H68.626V51.625H72.8848V51.5293C72.8665 51.2012 72.7982 50.8822 72.6797 50.5723C72.5658 50.2624 72.3835 50.0072 72.1328 49.8066C71.8822 49.6061 71.5404 49.5059 71.1074 49.5059C70.8203 49.5059 70.556 49.5674 70.3145 49.6904C70.0729 49.8089 69.8656 49.9867 69.6924 50.2236C69.5192 50.4606 69.3848 50.75 69.2891 51.0918C69.1934 51.4336 69.1455 51.8278 69.1455 52.2744V52.5615C69.1455 52.9124 69.1934 53.2428 69.2891 53.5527C69.3893 53.8581 69.5329 54.127 69.7197 54.3594C69.9111 54.5918 70.1413 54.7741 70.4102 54.9062C70.6836 55.0384 70.9935 55.1045 71.3398 55.1045C71.7865 55.1045 72.1647 55.0133 72.4746 54.8311C72.7845 54.6488 73.0557 54.4049 73.2881 54.0996L74.0537 54.708C73.8942 54.9495 73.6914 55.1797 73.4453 55.3984C73.1992 55.6172 72.8962 55.7949 72.5361 55.9316C72.1807 56.0684 71.7591 56.1367 71.2715 56.1367Z" fill="#333232"/>
<rect x="42" y="4" width="24" height="18" rx="9" fill="#2CB708"/>
<path d="M51.9346 8.85156V16H51.0312V9.97949L49.21 10.6436V9.82812L51.793 8.85156H51.9346ZM59.249 15.2578V16H54.5957V15.3506L56.9248 12.7578C57.2113 12.4388 57.4326 12.1686 57.5889 11.9473C57.7484 11.7227 57.859 11.5225 57.9209 11.3467C57.986 11.1676 58.0186 10.9854 58.0186 10.7998C58.0186 10.5654 57.9697 10.3538 57.8721 10.165C57.7777 9.97298 57.6377 9.81999 57.4521 9.70605C57.2666 9.59212 57.042 9.53516 56.7783 9.53516C56.4626 9.53516 56.1989 9.59701 55.9873 9.7207C55.779 9.84115 55.6227 10.0104 55.5186 10.2285C55.4144 10.4466 55.3623 10.6973 55.3623 10.9805H54.459C54.459 10.5801 54.5469 10.2139 54.7227 9.88184C54.8984 9.5498 55.1589 9.28613 55.5039 9.09082C55.849 8.89225 56.2738 8.79297 56.7783 8.79297C57.2275 8.79297 57.6117 8.87272 57.9307 9.03223C58.2497 9.18848 58.4938 9.40983 58.6631 9.69629C58.8356 9.97949 58.9219 10.3115 58.9219 10.6924C58.9219 10.9007 58.8861 11.1123 58.8145 11.3271C58.7461 11.5387 58.6501 11.7503 58.5264 11.9619C58.4059 12.1735 58.2643 12.3818 58.1016 12.5869C57.9421 12.792 57.7712 12.9938 57.5889 13.1924L55.6846 15.2578H59.249Z" fill="white"/>
</svg>
