<svg width="41" height="40" viewBox="0 0 41 40" fill="none" xmlns="http://www.w3.org/2000/svg">
<path d="M0 0H36C38.7614 0 41 2.23858 41 5V35C41 37.7614 38.7614 40 36 40H0V0Z" fill="#2CB708"/>
<path d="M29.8841 27.8866L24.3647 22.3293C25.4115 21.028 26.0417 19.3737 26.0417 17.5725C26.0417 13.397 22.6678 10 18.5208 10C14.3738 10 11 13.397 11 17.5725C11 21.748 14.3739 25.145 18.5209 25.145C20.3098 25.145 21.9528 24.5105 23.2453 23.4565L28.7647 29.0138C28.9193 29.1693 29.1698 29.1693 29.3245 29.0138L29.8841 28.4503C30.0386 28.2946 30.0386 28.0422 29.8841 27.8866ZM18.5209 23.5508C15.2467 23.5508 12.5834 20.8691 12.5834 17.5725C12.5834 14.2759 15.2467 11.5942 18.5209 11.5942C21.795 11.5942 24.4584 14.2759 24.4584 17.5725C24.4584 20.8691 21.795 23.5508 18.5209 23.5508Z" fill="white"/>
</svg>
