<svg width="40" height="60" viewBox="0 0 40 60" fill="none" xmlns="http://www.w3.org/2000/svg">
<g clip-path="url(#clip0_1_319)">
<path d="M18.5 19C21.5376 19 24 16.5376 24 13.5C24 10.4624 21.5376 8 18.5 8C15.4624 8 13 10.4624 13 13.5C13 16.5376 15.4624 19 18.5 19Z" stroke="#333232" stroke-linecap="round" stroke-linejoin="round"/>
<path d="M7.03653 31.9998H30.9635M7.03653 31.9998C7.01219 31.687 7 31.3734 7 31.0596C7 27.8612 8.26428 24.7938 10.5147 22.5322C12.7652 20.2706 15.8174 19 19 19C20.5758 19 22.1363 19.3119 23.5922 19.918C25.0481 20.524 26.371 21.4123 27.4853 22.5322C28.5996 23.652 29.4835 24.9815 30.0866 26.4446C30.6896 27.9078 31 29.4759 31 31.0596V31.0596C31 31.3734 30.9878 31.6871 30.9635 32" stroke="#333232" stroke-linecap="round" stroke-linejoin="round"/>
</g>
<path d="M4.70312 52.3447H2.18066L2.16699 51.2852H4.45703C4.83529 51.2852 5.16569 51.2214 5.44824 51.0938C5.73079 50.9661 5.94954 50.7839 6.10449 50.5469C6.264 50.3053 6.34375 50.0182 6.34375 49.6855C6.34375 49.321 6.27311 49.0247 6.13184 48.7969C5.99512 48.5645 5.7832 48.3958 5.49609 48.291C5.21354 48.1816 4.85352 48.127 4.41602 48.127H2.47461V57H1.15527V47.0469H4.41602C4.92643 47.0469 5.38216 47.0993 5.7832 47.2041C6.18424 47.3044 6.52376 47.4639 6.80176 47.6826C7.08431 47.8968 7.2985 48.1702 7.44434 48.5029C7.59017 48.8356 7.66309 49.2344 7.66309 49.6992C7.66309 50.1094 7.55827 50.4808 7.34863 50.8135C7.139 51.1416 6.84733 51.4105 6.47363 51.6201C6.10449 51.8298 5.67155 51.9642 5.1748 52.0234L4.70312 52.3447ZM4.6416 57H1.66113L2.40625 55.9268H4.6416C5.06087 55.9268 5.41634 55.8538 5.70801 55.708C6.00423 55.5622 6.22982 55.3571 6.38477 55.0928C6.53971 54.8239 6.61719 54.5072 6.61719 54.1426C6.61719 53.7734 6.55111 53.4544 6.41895 53.1855C6.28678 52.9167 6.07943 52.7093 5.79688 52.5635C5.51432 52.4176 5.14974 52.3447 4.70312 52.3447H2.82324L2.83691 51.2852H5.40723L5.6875 51.668C6.16602 51.709 6.57161 51.8457 6.9043 52.0781C7.23698 52.306 7.48991 52.5977 7.66309 52.9531C7.84082 53.3086 7.92969 53.7005 7.92969 54.1289C7.92969 54.7487 7.79297 55.2728 7.51953 55.7012C7.25065 56.125 6.87012 56.4486 6.37793 56.6719C5.88574 56.8906 5.30697 57 4.6416 57ZM9.35156 53.3838V53.2266C9.35156 52.6934 9.42904 52.1989 9.58398 51.7432C9.73893 51.2829 9.96224 50.8841 10.2539 50.5469C10.5456 50.2051 10.8988 49.9408 11.3135 49.7539C11.7282 49.5625 12.193 49.4668 12.708 49.4668C13.2275 49.4668 13.6947 49.5625 14.1094 49.7539C14.5286 49.9408 14.8841 50.2051 15.1758 50.5469C15.472 50.8841 15.6976 51.2829 15.8525 51.7432C16.0075 52.1989 16.085 52.6934 16.085 53.2266V53.3838C16.085 53.917 16.0075 54.4115 15.8525 54.8672C15.6976 55.3229 15.472 55.7217 15.1758 56.0635C14.8841 56.4007 14.5309 56.665 14.1162 56.8564C13.7061 57.0433 13.2412 57.1367 12.7217 57.1367C12.2021 57.1367 11.735 57.0433 11.3203 56.8564C10.9056 56.665 10.5501 56.4007 10.2539 56.0635C9.96224 55.7217 9.73893 55.3229 9.58398 54.8672C9.42904 54.4115 9.35156 53.917 9.35156 53.3838ZM10.6162 53.2266V53.3838C10.6162 53.7529 10.6595 54.1016 10.7461 54.4297C10.8327 54.7533 10.9626 55.0404 11.1357 55.291C11.3135 55.5417 11.5345 55.7399 11.7988 55.8857C12.0632 56.027 12.3708 56.0977 12.7217 56.0977C13.068 56.0977 13.3711 56.027 13.6309 55.8857C13.8952 55.7399 14.1139 55.5417 14.2871 55.291C14.4603 55.0404 14.5902 54.7533 14.6768 54.4297C14.7679 54.1016 14.8135 53.7529 14.8135 53.3838V53.2266C14.8135 52.862 14.7679 52.5179 14.6768 52.1943C14.5902 51.8662 14.458 51.5768 14.2803 51.3262C14.1071 51.071 13.8883 50.8704 13.624 50.7246C13.3643 50.5788 13.0589 50.5059 12.708 50.5059C12.3617 50.5059 12.0563 50.5788 11.792 50.7246C11.5322 50.8704 11.3135 51.071 11.1357 51.3262C10.9626 51.5768 10.8327 51.8662 10.7461 52.1943C10.6595 52.5179 10.6162 52.862 10.6162 53.2266ZM19.0381 54.9971L22.4492 49.6035H23.7207V57H22.4492V51.6064L19.0381 57H17.7803V49.6035H19.0381V54.9971ZM21.7588 46.9238H22.7842C22.7842 47.2793 22.7021 47.596 22.5381 47.874C22.374 48.1475 22.1393 48.3617 21.834 48.5166C21.5286 48.6715 21.1663 48.749 20.7471 48.749C20.1136 48.749 19.6123 48.5804 19.2432 48.2432C18.8786 47.9014 18.6963 47.4616 18.6963 46.9238H19.7217C19.7217 47.1927 19.7992 47.4297 19.9541 47.6348C20.109 47.8398 20.3734 47.9424 20.7471 47.9424C21.1117 47.9424 21.3714 47.8398 21.5264 47.6348C21.6813 47.4297 21.7588 47.1927 21.7588 46.9238ZM28.7656 49.6035V57H27.4941V49.6035H28.7656ZM31.2471 49.6035V50.6289H25.0605V49.6035H31.2471ZM33.8584 54.9971L37.2695 49.6035H38.541V57H37.2695V51.6064L33.8584 57H32.6006V49.6035H33.8584V54.9971Z" fill="#333232"/>
<defs>
<clipPath id="clip0_1_319">
<rect width="26" height="26" fill="white" transform="translate(6 7)"/>
</clipPath>
</defs>
</svg>
