<svg width="50" height="60" viewBox="0 0 50 60" fill="none" xmlns="http://www.w3.org/2000/svg">
<path fill-rule="evenodd" clip-rule="evenodd" d="M34.84 32.1429H15.08C13.9313 32.1429 13 31.1601 13 29.9481L15.08 16.7792C15.4326 14.8906 16.4674 14.5844 17.616 14.5844H18.9951C19.7792 10.772 22.153 8 24.96 8C27.767 8 30.1408 10.772 30.9249 14.5844H32.304C33.4526 14.5844 34.4874 14.8906 34.84 16.7792L36.92 29.9481C36.92 31.1601 35.9887 32.1429 34.84 32.1429ZM24.96 9.0974C22.697 9.0974 20.7766 11.3899 20.0626 14.5844H29.8579C29.1434 11.3899 27.2236 9.0974 24.96 9.0974ZM33.8 16.7792C33.6398 16.0379 33.3024 15.6818 32.5676 15.6818H31.097C31.161 16.2174 31.2 16.7655 31.2 17.3279C31.2 17.6308 30.9676 17.8766 30.68 17.8766C30.3924 17.8766 30.16 17.6308 30.16 17.3279C30.16 16.7644 30.1241 16.2135 30.0555 15.6818H19.8645C19.7964 16.2135 19.76 16.7644 19.76 17.3279C19.76 17.6308 19.5276 17.8766 19.24 17.8766C18.9524 17.8766 18.72 17.6308 18.72 17.3279C18.72 16.7655 18.759 16.2174 18.8224 15.6818H17.3519C16.6176 15.6818 16.2807 16.0379 16.12 16.7792L14.04 29.9481C14.04 30.5538 14.5059 31.0455 15.08 31.0455H34.84C35.4141 31.0455 35.88 30.5538 35.88 29.9481L33.8 16.7792Z" fill="#333232"/>
<path d="M4.2041 52.2217H3.02148V51.3809H4.15625C4.65755 51.3809 5.06315 51.3102 5.37305 51.1689C5.68294 51.0277 5.90853 50.8317 6.0498 50.5811C6.19108 50.3304 6.26172 50.041 6.26172 49.7129C6.26172 49.3984 6.18424 49.1113 6.0293 48.8516C5.87435 48.5872 5.63509 48.3776 5.31152 48.2227C4.98796 48.0632 4.57096 47.9834 4.06055 47.9834C3.67773 47.9834 3.33138 48.0563 3.02148 48.2021C2.71159 48.3434 2.46549 48.5417 2.2832 48.7969C2.10091 49.0475 2.00977 49.3369 2.00977 49.665H0.69043C0.69043 49.2412 0.779297 48.8607 0.957031 48.5234C1.13477 48.1816 1.37858 47.8923 1.68848 47.6553C1.99837 47.4137 2.35612 47.2292 2.76172 47.1016C3.17188 46.974 3.60482 46.9102 4.06055 46.9102C4.59375 46.9102 5.07682 46.9717 5.50977 47.0947C5.94271 47.2132 6.31413 47.391 6.62402 47.6279C6.93392 47.8649 7.1709 48.1589 7.33496 48.5098C7.49902 48.8607 7.58105 49.2686 7.58105 49.7334C7.58105 50.0752 7.5013 50.3965 7.3418 50.6973C7.18229 50.998 6.95443 51.2624 6.6582 51.4902C6.36198 51.7181 6.00651 51.8981 5.5918 52.0303C5.17708 52.1579 4.71452 52.2217 4.2041 52.2217ZM3.02148 51.6406H4.2041C4.76465 51.6406 5.26367 51.6976 5.70117 51.8115C6.13867 51.9255 6.50781 52.0918 6.80859 52.3105C7.10938 52.5293 7.33724 52.8005 7.49219 53.124C7.65169 53.443 7.73145 53.8099 7.73145 54.2246C7.73145 54.6895 7.6403 55.1019 7.45801 55.4619C7.28027 55.8219 7.02734 56.1273 6.69922 56.3779C6.37109 56.6286 5.98145 56.8177 5.53027 56.9453C5.08366 57.0729 4.59375 57.1367 4.06055 57.1367C3.63216 57.1367 3.20833 57.082 2.78906 56.9727C2.37435 56.8587 1.99837 56.6855 1.66113 56.4531C1.32389 56.2161 1.05273 55.9154 0.847656 55.5508C0.647135 55.1862 0.546875 54.7487 0.546875 54.2383H1.86621C1.86621 54.571 1.95736 54.8763 2.13965 55.1543C2.3265 55.4323 2.58398 55.6556 2.91211 55.8242C3.24023 55.9883 3.62305 56.0703 4.06055 56.0703C4.56185 56.0703 4.98568 55.9928 5.33203 55.8379C5.68294 55.6784 5.94954 55.4619 6.13184 55.1885C6.31868 54.9105 6.41211 54.5983 6.41211 54.252C6.41211 53.9466 6.36198 53.6823 6.26172 53.459C6.16602 53.2311 6.02246 53.0443 5.83105 52.8984C5.64421 52.7526 5.40951 52.6455 5.12695 52.5771C4.84896 52.5042 4.52539 52.4678 4.15625 52.4678H3.02148V51.6406ZM13.6377 55.7354V51.9277C13.6377 51.6361 13.5785 51.3831 13.46 51.1689C13.346 50.9502 13.1729 50.7816 12.9404 50.6631C12.708 50.5446 12.4209 50.4854 12.0791 50.4854C11.7601 50.4854 11.4798 50.54 11.2383 50.6494C11.0013 50.7588 10.8145 50.9023 10.6777 51.0801C10.5456 51.2578 10.4795 51.4492 10.4795 51.6543H9.21484C9.21484 51.39 9.2832 51.1279 9.41992 50.8682C9.55664 50.6084 9.7526 50.3737 10.0078 50.1641C10.2676 49.9499 10.5775 49.7812 10.9375 49.6582C11.3021 49.5306 11.7077 49.4668 12.1543 49.4668C12.6921 49.4668 13.166 49.5579 13.5762 49.7402C13.9909 49.9225 14.3145 50.1982 14.5469 50.5674C14.7839 50.932 14.9023 51.39 14.9023 51.9414V55.3867C14.9023 55.6328 14.9229 55.8949 14.9639 56.1729C15.0094 56.4508 15.0755 56.6901 15.1621 56.8906V57H13.8428C13.779 56.8542 13.7288 56.6605 13.6924 56.4189C13.6559 56.1729 13.6377 55.945 13.6377 55.7354ZM13.8564 52.5156L13.8701 53.4043H12.5918C12.2318 53.4043 11.9105 53.4339 11.6279 53.4932C11.3454 53.5479 11.1084 53.6322 10.917 53.7461C10.7256 53.86 10.5798 54.0036 10.4795 54.1768C10.3792 54.3454 10.3291 54.5436 10.3291 54.7715C10.3291 55.0039 10.3815 55.2158 10.4863 55.4072C10.5911 55.5986 10.7484 55.7513 10.958 55.8652C11.1722 55.9746 11.4342 56.0293 11.7441 56.0293C12.1315 56.0293 12.4733 55.9473 12.7695 55.7832C13.0658 55.6191 13.3005 55.4186 13.4736 55.1816C13.6514 54.9447 13.7471 54.7145 13.7607 54.4912L14.3008 55.0996C14.2689 55.291 14.1823 55.5029 14.041 55.7354C13.8997 55.9678 13.7106 56.1911 13.4736 56.4053C13.2412 56.6149 12.9632 56.7904 12.6396 56.9316C12.3206 57.0684 11.9606 57.1367 11.5596 57.1367C11.0583 57.1367 10.6185 57.0387 10.2402 56.8428C9.86654 56.6468 9.57487 56.3848 9.36523 56.0566C9.16016 55.724 9.05762 55.3525 9.05762 54.9424C9.05762 54.5459 9.13509 54.1973 9.29004 53.8965C9.44499 53.5911 9.66829 53.3382 9.95996 53.1377C10.2516 52.9326 10.6025 52.7777 11.0127 52.6729C11.4229 52.568 11.8809 52.5156 12.3867 52.5156H13.8564ZM18.2656 49.6035V57H17.001V49.6035H18.2656ZM23.1191 49.6035L19.6123 53.8418H17.8418L17.6504 52.7344H19.0996L21.5811 49.6035H23.1191ZM21.7588 57L19.0381 53.6504L19.8516 52.7344L23.3652 57H21.7588ZM28.8271 55.7354V51.9277C28.8271 51.6361 28.7679 51.3831 28.6494 51.1689C28.5355 50.9502 28.3623 50.7816 28.1299 50.6631C27.8975 50.5446 27.6104 50.4854 27.2686 50.4854C26.9495 50.4854 26.6693 50.54 26.4277 50.6494C26.1908 50.7588 26.0039 50.9023 25.8672 51.0801C25.735 51.2578 25.6689 51.4492 25.6689 51.6543H24.4043C24.4043 51.39 24.4727 51.1279 24.6094 50.8682C24.7461 50.6084 24.9421 50.3737 25.1973 50.1641C25.457 49.9499 25.7669 49.7812 26.127 49.6582C26.4915 49.5306 26.8971 49.4668 27.3438 49.4668C27.8815 49.4668 28.3555 49.5579 28.7656 49.7402C29.1803 49.9225 29.5039 50.1982 29.7363 50.5674C29.9733 50.932 30.0918 51.39 30.0918 51.9414V55.3867C30.0918 55.6328 30.1123 55.8949 30.1533 56.1729C30.1989 56.4508 30.265 56.6901 30.3516 56.8906V57H29.0322C28.9684 56.8542 28.9183 56.6605 28.8818 56.4189C28.8454 56.1729 28.8271 55.945 28.8271 55.7354ZM29.0459 52.5156L29.0596 53.4043H27.7812C27.4212 53.4043 27.0999 53.4339 26.8174 53.4932C26.5348 53.5479 26.2979 53.6322 26.1064 53.7461C25.915 53.86 25.7692 54.0036 25.6689 54.1768C25.5687 54.3454 25.5186 54.5436 25.5186 54.7715C25.5186 55.0039 25.571 55.2158 25.6758 55.4072C25.7806 55.5986 25.9378 55.7513 26.1475 55.8652C26.3617 55.9746 26.6237 56.0293 26.9336 56.0293C27.321 56.0293 27.6628 55.9473 27.959 55.7832C28.2552 55.6191 28.4899 55.4186 28.6631 55.1816C28.8408 54.9447 28.9365 54.7145 28.9502 54.4912L29.4902 55.0996C29.4583 55.291 29.3717 55.5029 29.2305 55.7354C29.0892 55.9678 28.9001 56.1911 28.6631 56.4053C28.4307 56.6149 28.1527 56.7904 27.8291 56.9316C27.5101 57.0684 27.1501 57.1367 26.749 57.1367C26.2477 57.1367 25.8079 57.0387 25.4297 56.8428C25.056 56.6468 24.7643 56.3848 24.5547 56.0566C24.3496 55.724 24.2471 55.3525 24.2471 54.9424C24.2471 54.5459 24.3245 54.1973 24.4795 53.8965C24.6344 53.5911 24.8577 53.3382 25.1494 53.1377C25.4411 52.9326 25.792 52.7777 26.2021 52.6729C26.6123 52.568 27.0703 52.5156 27.5762 52.5156H29.0459ZM34.8428 53.4658H33.4824V52.6865H34.7402C35.0911 52.6865 35.3691 52.6432 35.5742 52.5566C35.7793 52.4655 35.9251 52.3402 36.0117 52.1807C36.0983 52.0212 36.1416 51.8343 36.1416 51.6201C36.1416 51.4287 36.0915 51.2487 35.9912 51.0801C35.8955 50.9069 35.7406 50.7679 35.5264 50.6631C35.3122 50.5537 35.0251 50.499 34.665 50.499C34.3734 50.499 34.109 50.5514 33.8721 50.6562C33.6351 50.7565 33.446 50.8955 33.3047 51.0732C33.168 51.2464 33.0996 51.4424 33.0996 51.6611H31.835C31.835 51.21 31.9626 50.8226 32.2178 50.499C32.4775 50.1709 32.8216 49.918 33.25 49.7402C33.6829 49.5625 34.1546 49.4736 34.665 49.4736C35.0934 49.4736 35.4762 49.5215 35.8135 49.6172C36.1553 49.7083 36.4447 49.8451 36.6816 50.0273C36.9186 50.2051 37.0986 50.4284 37.2217 50.6973C37.3493 50.9616 37.4131 51.2692 37.4131 51.6201C37.4131 51.8708 37.3538 52.1077 37.2354 52.3311C37.1169 52.5544 36.946 52.7526 36.7227 52.9258C36.4993 53.0944 36.2282 53.2266 35.9092 53.3223C35.5947 53.418 35.2393 53.4658 34.8428 53.4658ZM33.4824 52.9873H34.8428C35.2848 52.9873 35.6745 53.0306 36.0117 53.1172C36.349 53.1992 36.6315 53.3223 36.8594 53.4863C37.0872 53.6504 37.2581 53.8532 37.3721 54.0947C37.4906 54.3317 37.5498 54.6051 37.5498 54.915C37.5498 55.2614 37.4792 55.5736 37.3379 55.8516C37.2012 56.125 37.0052 56.3574 36.75 56.5488C36.4948 56.7402 36.1895 56.8861 35.834 56.9863C35.4831 57.0866 35.0934 57.1367 34.665 57.1367C34.1865 57.1367 33.7217 57.0547 33.2705 56.8906C32.8193 56.7266 32.4479 56.4736 32.1562 56.1318C31.8646 55.7855 31.7188 55.3457 31.7188 54.8125H32.9834C32.9834 55.0358 33.054 55.2477 33.1953 55.4482C33.3366 55.6488 33.5326 55.8105 33.7832 55.9336C34.0384 56.0566 34.3324 56.1182 34.665 56.1182C35.0205 56.1182 35.3167 56.0635 35.5537 55.9541C35.7907 55.8447 35.9684 55.6989 36.0869 55.5166C36.21 55.3343 36.2715 55.1361 36.2715 54.9219C36.2715 54.6439 36.2168 54.4206 36.1074 54.252C35.998 54.0833 35.8294 53.9603 35.6016 53.8828C35.3783 53.8008 35.0911 53.7598 34.7402 53.7598H33.4824V52.9873ZM40.2295 52.1465H42.4512C43.0482 52.1465 43.5518 52.2513 43.9619 52.4609C44.3721 52.666 44.682 52.9508 44.8916 53.3154C45.1058 53.6755 45.2129 54.0856 45.2129 54.5459C45.2129 54.8877 45.1536 55.209 45.0352 55.5098C44.9167 55.806 44.7389 56.0658 44.502 56.2891C44.2695 56.5124 43.9801 56.6878 43.6338 56.8154C43.292 56.9385 42.8978 57 42.4512 57H39.3066V49.6035H40.5713V55.9609H42.4512C42.8158 55.9609 43.1074 55.8949 43.3262 55.7627C43.5449 55.6305 43.7021 55.4596 43.7979 55.25C43.8936 55.0404 43.9414 54.8216 43.9414 54.5938C43.9414 54.3704 43.8936 54.1517 43.7979 53.9375C43.7021 53.7233 43.5449 53.5456 43.3262 53.4043C43.1074 53.2585 42.8158 53.1855 42.4512 53.1855H40.2295V52.1465ZM47.8447 49.6035V57H46.5801V49.6035H47.8447Z" fill="#333232"/>
<rect x="32" y="4" width="18" height="18" rx="9" fill="#2CB708"/>
<path d="M39.9209 12.6162L39.1982 12.4307L39.5547 8.89062H43.2021V9.72559H40.3213L40.1064 11.6592C40.2367 11.5843 40.401 11.5143 40.5996 11.4492C40.8014 11.3841 41.0326 11.3516 41.293 11.3516C41.6217 11.3516 41.9163 11.4085 42.1768 11.5225C42.4372 11.6331 42.6585 11.7926 42.8408 12.001C43.0264 12.2093 43.168 12.46 43.2656 12.7529C43.3633 13.0459 43.4121 13.373 43.4121 13.7344C43.4121 14.0762 43.3649 14.3903 43.2705 14.6768C43.1794 14.9632 43.041 15.2139 42.8555 15.4287C42.6699 15.6403 42.4355 15.8047 42.1523 15.9219C41.8724 16.0391 41.542 16.0977 41.1611 16.0977C40.8747 16.0977 40.6029 16.0586 40.3457 15.9805C40.0918 15.8991 39.8639 15.777 39.6621 15.6143C39.4635 15.4482 39.3008 15.2432 39.1738 14.999C39.0501 14.7516 38.972 14.4619 38.9395 14.1299H39.7988C39.8379 14.3968 39.916 14.6214 40.0332 14.8037C40.1504 14.986 40.3034 15.1243 40.4922 15.2188C40.6842 15.3099 40.9072 15.3555 41.1611 15.3555C41.376 15.3555 41.5664 15.318 41.7324 15.2432C41.8984 15.1683 42.0384 15.0609 42.1523 14.9209C42.2663 14.7809 42.3525 14.6117 42.4111 14.4131C42.473 14.2145 42.5039 13.9915 42.5039 13.7441C42.5039 13.5195 42.473 13.3112 42.4111 13.1191C42.3493 12.9271 42.2565 12.7594 42.1328 12.6162C42.0124 12.473 41.8643 12.3623 41.6885 12.2842C41.5127 12.2028 41.3109 12.1621 41.083 12.1621C40.7803 12.1621 40.5508 12.2028 40.3945 12.2842C40.2415 12.3656 40.0837 12.4762 39.9209 12.6162Z" fill="white"/>
</svg>
