<svg width="231" height="17" viewBox="0 0 231 17" fill="none" xmlns="http://www.w3.org/2000/svg">
<path d="M19.5723 4.04688H20.8506L24.1113 12.1611L27.3652 4.04688H28.6504L24.6035 14H23.6055L19.5723 4.04688ZM19.1553 4.04688H20.2832L20.4678 10.1172V14H19.1553V4.04688ZM27.9326 4.04688H29.0605V14H27.748V10.1172L27.9326 4.04688ZM30.8516 10.3838V10.2266C30.8516 9.69336 30.929 9.19889 31.084 8.74316C31.2389 8.28288 31.4622 7.88411 31.7539 7.54688C32.0456 7.20508 32.3988 6.94076 32.8135 6.75391C33.2282 6.5625 33.693 6.4668 34.208 6.4668C34.7275 6.4668 35.1947 6.5625 35.6094 6.75391C36.0286 6.94076 36.3841 7.20508 36.6758 7.54688C36.972 7.88411 37.1976 8.28288 37.3525 8.74316C37.5075 9.19889 37.585 9.69336 37.585 10.2266V10.3838C37.585 10.917 37.5075 11.4115 37.3525 11.8672C37.1976 12.3229 36.972 12.7217 36.6758 13.0635C36.3841 13.4007 36.0309 13.665 35.6162 13.8564C35.2061 14.0433 34.7412 14.1367 34.2217 14.1367C33.7021 14.1367 33.235 14.0433 32.8203 13.8564C32.4056 13.665 32.0501 13.4007 31.7539 13.0635C31.4622 12.7217 31.2389 12.3229 31.084 11.8672C30.929 11.4115 30.8516 10.917 30.8516 10.3838ZM32.1162 10.2266V10.3838C32.1162 10.7529 32.1595 11.1016 32.2461 11.4297C32.3327 11.7533 32.4626 12.0404 32.6357 12.291C32.8135 12.5417 33.0345 12.7399 33.2988 12.8857C33.5632 13.027 33.8708 13.0977 34.2217 13.0977C34.568 13.0977 34.8711 13.027 35.1309 12.8857C35.3952 12.7399 35.6139 12.5417 35.7871 12.291C35.9603 12.0404 36.0902 11.7533 36.1768 11.4297C36.2679 11.1016 36.3135 10.7529 36.3135 10.3838V10.2266C36.3135 9.86198 36.2679 9.5179 36.1768 9.19434C36.0902 8.86621 35.958 8.57682 35.7803 8.32617C35.6071 8.07096 35.3883 7.87044 35.124 7.72461C34.8643 7.57878 34.5589 7.50586 34.208 7.50586C33.8617 7.50586 33.5563 7.57878 33.292 7.72461C33.0322 7.87044 32.8135 8.07096 32.6357 8.32617C32.4626 8.57682 32.3327 8.86621 32.2461 9.19434C32.1595 9.5179 32.1162 9.86198 32.1162 10.2266ZM42.1309 13.0977C42.4316 13.0977 42.7096 13.0361 42.9648 12.9131C43.2201 12.79 43.4297 12.6214 43.5938 12.4072C43.7578 12.1885 43.8512 11.9401 43.874 11.6621H45.0771C45.0544 12.0996 44.9062 12.5075 44.6328 12.8857C44.3639 13.2594 44.0107 13.5625 43.5732 13.7949C43.1357 14.0228 42.6549 14.1367 42.1309 14.1367C41.5749 14.1367 41.0895 14.0387 40.6748 13.8428C40.2646 13.6468 39.9229 13.3779 39.6494 13.0361C39.3805 12.6943 39.1777 12.3024 39.041 11.8604C38.9089 11.4137 38.8428 10.9421 38.8428 10.4453V10.1582C38.8428 9.66146 38.9089 9.19206 39.041 8.75C39.1777 8.30339 39.3805 7.90918 39.6494 7.56738C39.9229 7.22559 40.2646 6.95671 40.6748 6.76074C41.0895 6.56478 41.5749 6.4668 42.1309 6.4668C42.7096 6.4668 43.2155 6.58529 43.6484 6.82227C44.0814 7.05469 44.4209 7.3737 44.667 7.7793C44.9176 8.18034 45.0544 8.63607 45.0771 9.14648H43.874C43.8512 8.84115 43.7646 8.56543 43.6143 8.31934C43.4684 8.07324 43.2679 7.87728 43.0127 7.73145C42.762 7.58105 42.4681 7.50586 42.1309 7.50586C41.7435 7.50586 41.4176 7.58333 41.1533 7.73828C40.8936 7.88867 40.6862 8.09375 40.5312 8.35352C40.3809 8.60872 40.2715 8.89355 40.2031 9.20801C40.1393 9.5179 40.1074 9.83464 40.1074 10.1582V10.4453C40.1074 10.7689 40.1393 11.0879 40.2031 11.4023C40.2669 11.7168 40.374 12.0016 40.5244 12.2568C40.6794 12.512 40.8867 12.7171 41.1465 12.8721C41.4108 13.0225 41.7389 13.0977 42.1309 13.0977ZM47.873 6.60352V14H46.6084V6.60352H47.873ZM52.7266 6.60352L49.2197 10.8418H47.4492L47.2578 9.73438H48.707L51.1885 6.60352H52.7266ZM51.3662 14L48.6455 10.6504L49.459 9.73438L52.9727 14H51.3662ZM57.5459 10.7461H55.1191L55.1055 9.73438H57.0879C57.4798 9.73438 57.8057 9.69564 58.0654 9.61816C58.3298 9.54069 58.528 9.42448 58.6602 9.26953C58.7923 9.11458 58.8584 8.92318 58.8584 8.69531C58.8584 8.51758 58.8197 8.36263 58.7422 8.23047C58.6693 8.09375 58.5576 7.9821 58.4072 7.89551C58.2568 7.80436 58.07 7.73828 57.8467 7.69727C57.6279 7.65169 57.3704 7.62891 57.0742 7.62891H55.4541V14H54.1895V6.60352H57.0742C57.5436 6.60352 57.9652 6.64453 58.3389 6.72656C58.7171 6.80859 59.0384 6.93392 59.3027 7.10254C59.5716 7.2666 59.7767 7.47624 59.918 7.73145C60.0592 7.98665 60.1299 8.28743 60.1299 8.63379C60.1299 8.8571 60.0843 9.06901 59.9932 9.26953C59.902 9.47005 59.7676 9.64779 59.5898 9.80273C59.4121 9.95768 59.1934 10.0853 58.9336 10.1855C58.6738 10.2812 58.3753 10.3428 58.0381 10.3701L57.5459 10.7461ZM57.5459 14H54.6611L55.29 12.9746H57.5459C57.8968 12.9746 58.1885 12.9313 58.4209 12.8447C58.6533 12.7536 58.8265 12.626 58.9404 12.4619C59.0589 12.2933 59.1182 12.0928 59.1182 11.8604C59.1182 11.6279 59.0589 11.4297 58.9404 11.2656C58.8265 11.097 58.6533 10.9694 58.4209 10.8828C58.1885 10.7917 57.8968 10.7461 57.5459 10.7461H55.625L55.6387 9.73438H58.0381L58.4961 10.1172C58.9017 10.1491 59.2458 10.2493 59.5283 10.418C59.8109 10.5866 60.0251 10.8008 60.1709 11.0605C60.3167 11.3158 60.3896 11.5938 60.3896 11.8945C60.3896 12.2409 60.3236 12.5462 60.1914 12.8105C60.0638 13.0749 59.877 13.2959 59.6309 13.4736C59.3848 13.6468 59.0863 13.779 58.7354 13.8701C58.3844 13.9567 57.988 14 57.5459 14ZM66.4463 12.7354V8.92773C66.4463 8.63607 66.387 8.38314 66.2686 8.16895C66.1546 7.9502 65.9814 7.78158 65.749 7.66309C65.5166 7.5446 65.2295 7.48535 64.8877 7.48535C64.5687 7.48535 64.2884 7.54004 64.0469 7.64941C63.8099 7.75879 63.623 7.90234 63.4863 8.08008C63.3542 8.25781 63.2881 8.44922 63.2881 8.6543H62.0234C62.0234 8.38997 62.0918 8.12793 62.2285 7.86816C62.3652 7.6084 62.5612 7.3737 62.8164 7.16406C63.0762 6.94987 63.3861 6.78125 63.7461 6.6582C64.1107 6.5306 64.5163 6.4668 64.9629 6.4668C65.5007 6.4668 65.9746 6.55794 66.3848 6.74023C66.7995 6.92253 67.123 7.19824 67.3555 7.56738C67.5924 7.93197 67.7109 8.38997 67.7109 8.94141V12.3867C67.7109 12.6328 67.7314 12.8949 67.7725 13.1729C67.818 13.4508 67.8841 13.6901 67.9707 13.8906V14H66.6514C66.5876 13.8542 66.5374 13.6605 66.501 13.4189C66.4645 13.1729 66.4463 12.945 66.4463 12.7354ZM66.665 9.51562L66.6787 10.4043H65.4004C65.0404 10.4043 64.7191 10.4339 64.4365 10.4932C64.154 10.5479 63.917 10.6322 63.7256 10.7461C63.5342 10.86 63.3883 11.0036 63.2881 11.1768C63.1878 11.3454 63.1377 11.5436 63.1377 11.7715C63.1377 12.0039 63.1901 12.2158 63.2949 12.4072C63.3997 12.5986 63.557 12.7513 63.7666 12.8652C63.9808 12.9746 64.2428 13.0293 64.5527 13.0293C64.9401 13.0293 65.2819 12.9473 65.5781 12.7832C65.8743 12.6191 66.109 12.4186 66.2822 12.1816C66.46 11.9447 66.5557 11.7145 66.5693 11.4912L67.1094 12.0996C67.0775 12.291 66.9909 12.5029 66.8496 12.7354C66.7083 12.9678 66.5192 13.1911 66.2822 13.4053C66.0498 13.6149 65.7718 13.7904 65.4482 13.9316C65.1292 14.0684 64.7692 14.1367 64.3682 14.1367C63.8669 14.1367 63.4271 14.0387 63.0488 13.8428C62.6751 13.6468 62.3835 13.3848 62.1738 13.0566C61.9688 12.724 61.8662 12.3525 61.8662 11.9424C61.8662 11.5459 61.9437 11.1973 62.0986 10.8965C62.2536 10.5911 62.4769 10.3382 62.7686 10.1377C63.0602 9.93262 63.4111 9.77767 63.8213 9.67285C64.2314 9.56803 64.6895 9.51562 65.1953 9.51562H66.665ZM70.8486 12.4961V13.5146C70.8486 13.9294 70.7438 14.3669 70.5342 14.8271C70.3245 15.292 70.0306 15.6794 69.6523 15.9893L68.9346 15.4902C69.0804 15.2897 69.2035 15.0846 69.3037 14.875C69.404 14.6699 69.4792 14.4557 69.5293 14.2324C69.584 14.0137 69.6113 13.7812 69.6113 13.5352V12.4961H70.8486ZM76.543 4.04688H77.8213L81.082 12.1611L84.3359 4.04688H85.6211L81.5742 14H80.5762L76.543 4.04688ZM76.126 4.04688H77.2539L77.4385 10.1172V14H76.126V4.04688ZM84.9033 4.04688H86.0312V14H84.7188V10.1172L84.9033 4.04688ZM87.8223 10.3838V10.2266C87.8223 9.69336 87.8997 9.19889 88.0547 8.74316C88.2096 8.28288 88.4329 7.88411 88.7246 7.54688C89.0163 7.20508 89.3695 6.94076 89.7842 6.75391C90.1989 6.5625 90.6637 6.4668 91.1787 6.4668C91.6982 6.4668 92.1654 6.5625 92.5801 6.75391C92.9993 6.94076 93.3548 7.20508 93.6465 7.54688C93.9427 7.88411 94.1683 8.28288 94.3232 8.74316C94.4782 9.19889 94.5557 9.69336 94.5557 10.2266V10.3838C94.5557 10.917 94.4782 11.4115 94.3232 11.8672C94.1683 12.3229 93.9427 12.7217 93.6465 13.0635C93.3548 13.4007 93.0016 13.665 92.5869 13.8564C92.1768 14.0433 91.7119 14.1367 91.1924 14.1367C90.6729 14.1367 90.2057 14.0433 89.791 13.8564C89.3763 13.665 89.0208 13.4007 88.7246 13.0635C88.4329 12.7217 88.2096 12.3229 88.0547 11.8672C87.8997 11.4115 87.8223 10.917 87.8223 10.3838ZM89.0869 10.2266V10.3838C89.0869 10.7529 89.1302 11.1016 89.2168 11.4297C89.3034 11.7533 89.4333 12.0404 89.6064 12.291C89.7842 12.5417 90.0052 12.7399 90.2695 12.8857C90.5339 13.027 90.8415 13.0977 91.1924 13.0977C91.5387 13.0977 91.8418 13.027 92.1016 12.8857C92.3659 12.7399 92.5846 12.5417 92.7578 12.291C92.931 12.0404 93.0609 11.7533 93.1475 11.4297C93.2386 11.1016 93.2842 10.7529 93.2842 10.3838V10.2266C93.2842 9.86198 93.2386 9.5179 93.1475 9.19434C93.0609 8.86621 92.9287 8.57682 92.751 8.32617C92.5778 8.07096 92.359 7.87044 92.0947 7.72461C91.835 7.57878 91.5296 7.50586 91.1787 7.50586C90.8324 7.50586 90.527 7.57878 90.2627 7.72461C90.0029 7.87044 89.7842 8.07096 89.6064 8.32617C89.4333 8.57682 89.3034 8.86621 89.2168 9.19434C89.1302 9.5179 89.0869 9.86198 89.0869 10.2266ZM99.1016 13.0977C99.4023 13.0977 99.6803 13.0361 99.9355 12.9131C100.191 12.79 100.4 12.6214 100.564 12.4072C100.729 12.1885 100.822 11.9401 100.845 11.6621H102.048C102.025 12.0996 101.877 12.5075 101.604 12.8857C101.335 13.2594 100.981 13.5625 100.544 13.7949C100.106 14.0228 99.6257 14.1367 99.1016 14.1367C98.5456 14.1367 98.0602 14.0387 97.6455 13.8428C97.2354 13.6468 96.8936 13.3779 96.6201 13.0361C96.3512 12.6943 96.1484 12.3024 96.0117 11.8604C95.8796 11.4137 95.8135 10.9421 95.8135 10.4453V10.1582C95.8135 9.66146 95.8796 9.19206 96.0117 8.75C96.1484 8.30339 96.3512 7.90918 96.6201 7.56738C96.8936 7.22559 97.2354 6.95671 97.6455 6.76074C98.0602 6.56478 98.5456 6.4668 99.1016 6.4668C99.6803 6.4668 100.186 6.58529 100.619 6.82227C101.052 7.05469 101.392 7.3737 101.638 7.7793C101.888 8.18034 102.025 8.63607 102.048 9.14648H100.845C100.822 8.84115 100.735 8.56543 100.585 8.31934C100.439 8.07324 100.239 7.87728 99.9834 7.73145C99.7327 7.58105 99.4388 7.50586 99.1016 7.50586C98.7142 7.50586 98.3883 7.58333 98.124 7.73828C97.8643 7.88867 97.6569 8.09375 97.502 8.35352C97.3516 8.60872 97.2422 8.89355 97.1738 9.20801C97.11 9.5179 97.0781 9.83464 97.0781 10.1582V10.4453C97.0781 10.7689 97.11 11.0879 97.1738 11.4023C97.2376 11.7168 97.3447 12.0016 97.4951 12.2568C97.6501 12.512 97.8574 12.7171 98.1172 12.8721C98.3815 13.0225 98.7096 13.0977 99.1016 13.0977ZM104.844 6.60352V14H103.579V6.60352H104.844ZM109.697 6.60352L106.19 10.8418H104.42L104.229 9.73438H105.678L108.159 6.60352H109.697ZM108.337 14L105.616 10.6504L106.43 9.73438L109.943 14H108.337ZM110.559 10.3838V10.2266C110.559 9.69336 110.636 9.19889 110.791 8.74316C110.946 8.28288 111.169 7.88411 111.461 7.54688C111.753 7.20508 112.106 6.94076 112.521 6.75391C112.935 6.5625 113.4 6.4668 113.915 6.4668C114.435 6.4668 114.902 6.5625 115.316 6.75391C115.736 6.94076 116.091 7.20508 116.383 7.54688C116.679 7.88411 116.905 8.28288 117.06 8.74316C117.215 9.19889 117.292 9.69336 117.292 10.2266V10.3838C117.292 10.917 117.215 11.4115 117.06 11.8672C116.905 12.3229 116.679 12.7217 116.383 13.0635C116.091 13.4007 115.738 13.665 115.323 13.8564C114.913 14.0433 114.448 14.1367 113.929 14.1367C113.409 14.1367 112.942 14.0433 112.527 13.8564C112.113 13.665 111.757 13.4007 111.461 13.0635C111.169 12.7217 110.946 12.3229 110.791 11.8672C110.636 11.4115 110.559 10.917 110.559 10.3838ZM111.823 10.2266V10.3838C111.823 10.7529 111.867 11.1016 111.953 11.4297C112.04 11.7533 112.17 12.0404 112.343 12.291C112.521 12.5417 112.742 12.7399 113.006 12.8857C113.27 13.027 113.578 13.0977 113.929 13.0977C114.275 13.0977 114.578 13.027 114.838 12.8857C115.102 12.7399 115.321 12.5417 115.494 12.291C115.667 12.0404 115.797 11.7533 115.884 11.4297C115.975 11.1016 116.021 10.7529 116.021 10.3838V10.2266C116.021 9.86198 115.975 9.5179 115.884 9.19434C115.797 8.86621 115.665 8.57682 115.487 8.32617C115.314 8.07096 115.095 7.87044 114.831 7.72461C114.571 7.57878 114.266 7.50586 113.915 7.50586C113.569 7.50586 113.263 7.57878 112.999 7.72461C112.739 7.87044 112.521 8.07096 112.343 8.32617C112.17 8.57682 112.04 8.86621 111.953 9.19434C111.867 9.5179 111.823 9.86198 111.823 10.2266ZM122.351 10.7461H119.924L119.91 9.73438H121.893C122.285 9.73438 122.61 9.69564 122.87 9.61816C123.134 9.54069 123.333 9.42448 123.465 9.26953C123.597 9.11458 123.663 8.92318 123.663 8.69531C123.663 8.51758 123.624 8.36263 123.547 8.23047C123.474 8.09375 123.362 7.9821 123.212 7.89551C123.062 7.80436 122.875 7.73828 122.651 7.69727C122.433 7.65169 122.175 7.62891 121.879 7.62891H120.259V14H118.994V6.60352H121.879C122.348 6.60352 122.77 6.64453 123.144 6.72656C123.522 6.80859 123.843 6.93392 124.107 7.10254C124.376 7.2666 124.581 7.47624 124.723 7.73145C124.864 7.98665 124.935 8.28743 124.935 8.63379C124.935 8.8571 124.889 9.06901 124.798 9.26953C124.707 9.47005 124.572 9.64779 124.395 9.80273C124.217 9.95768 123.998 10.0853 123.738 10.1855C123.479 10.2812 123.18 10.3428 122.843 10.3701L122.351 10.7461ZM122.351 14H119.466L120.095 12.9746H122.351C122.701 12.9746 122.993 12.9313 123.226 12.8447C123.458 12.7536 123.631 12.626 123.745 12.4619C123.864 12.2933 123.923 12.0928 123.923 11.8604C123.923 11.6279 123.864 11.4297 123.745 11.2656C123.631 11.097 123.458 10.9694 123.226 10.8828C122.993 10.7917 122.701 10.7461 122.351 10.7461H120.43L120.443 9.73438H122.843L123.301 10.1172C123.706 10.1491 124.05 10.2493 124.333 10.418C124.616 10.5866 124.83 10.8008 124.976 11.0605C125.121 11.3158 125.194 11.5938 125.194 11.8945C125.194 12.2409 125.128 12.5462 124.996 12.8105C124.868 13.0749 124.682 13.2959 124.436 13.4736C124.189 13.6468 123.891 13.779 123.54 13.8701C123.189 13.9567 122.793 14 122.351 14ZM129.85 13.0977C130.15 13.0977 130.428 13.0361 130.684 12.9131C130.939 12.79 131.148 12.6214 131.312 12.4072C131.477 12.1885 131.57 11.9401 131.593 11.6621H132.796C132.773 12.0996 132.625 12.5075 132.352 12.8857C132.083 13.2594 131.729 13.5625 131.292 13.7949C130.854 14.0228 130.374 14.1367 129.85 14.1367C129.294 14.1367 128.808 14.0387 128.394 13.8428C127.983 13.6468 127.642 13.3779 127.368 13.0361C127.099 12.6943 126.896 12.3024 126.76 11.8604C126.628 11.4137 126.562 10.9421 126.562 10.4453V10.1582C126.562 9.66146 126.628 9.19206 126.76 8.75C126.896 8.30339 127.099 7.90918 127.368 7.56738C127.642 7.22559 127.983 6.95671 128.394 6.76074C128.808 6.56478 129.294 6.4668 129.85 6.4668C130.428 6.4668 130.934 6.58529 131.367 6.82227C131.8 7.05469 132.14 7.3737 132.386 7.7793C132.636 8.18034 132.773 8.63607 132.796 9.14648H131.593C131.57 8.84115 131.483 8.56543 131.333 8.31934C131.187 8.07324 130.987 7.87728 130.731 7.73145C130.481 7.58105 130.187 7.50586 129.85 7.50586C129.462 7.50586 129.136 7.58333 128.872 7.73828C128.612 7.88867 128.405 8.09375 128.25 8.35352C128.1 8.60872 127.99 8.89355 127.922 9.20801C127.858 9.5179 127.826 9.83464 127.826 10.1582V10.4453C127.826 10.7689 127.858 11.0879 127.922 11.4023C127.986 11.7168 128.093 12.0016 128.243 12.2568C128.398 12.512 128.605 12.7171 128.865 12.8721C129.13 13.0225 129.458 13.0977 129.85 13.0977ZM135.592 6.60352V14H134.327V6.60352H135.592ZM140.445 6.60352L136.938 10.8418H135.168L134.977 9.73438H136.426L138.907 6.60352H140.445ZM139.085 14L136.364 10.6504L137.178 9.73438L140.691 14H139.085ZM146.153 12.7354V8.92773C146.153 8.63607 146.094 8.38314 145.976 8.16895C145.862 7.9502 145.688 7.78158 145.456 7.66309C145.224 7.5446 144.937 7.48535 144.595 7.48535C144.276 7.48535 143.995 7.54004 143.754 7.64941C143.517 7.75879 143.33 7.90234 143.193 8.08008C143.061 8.25781 142.995 8.44922 142.995 8.6543H141.73C141.73 8.38997 141.799 8.12793 141.936 7.86816C142.072 7.6084 142.268 7.3737 142.523 7.16406C142.783 6.94987 143.093 6.78125 143.453 6.6582C143.818 6.5306 144.223 6.4668 144.67 6.4668C145.208 6.4668 145.682 6.55794 146.092 6.74023C146.507 6.92253 146.83 7.19824 147.062 7.56738C147.299 7.93197 147.418 8.38997 147.418 8.94141V12.3867C147.418 12.6328 147.438 12.8949 147.479 13.1729C147.525 13.4508 147.591 13.6901 147.678 13.8906V14H146.358C146.295 13.8542 146.244 13.6605 146.208 13.4189C146.172 13.1729 146.153 12.945 146.153 12.7354ZM146.372 9.51562L146.386 10.4043H145.107C144.747 10.4043 144.426 10.4339 144.144 10.4932C143.861 10.5479 143.624 10.6322 143.433 10.7461C143.241 10.86 143.095 11.0036 142.995 11.1768C142.895 11.3454 142.845 11.5436 142.845 11.7715C142.845 12.0039 142.897 12.2158 143.002 12.4072C143.107 12.5986 143.264 12.7513 143.474 12.8652C143.688 12.9746 143.95 13.0293 144.26 13.0293C144.647 13.0293 144.989 12.9473 145.285 12.7832C145.581 12.6191 145.816 12.4186 145.989 12.1816C146.167 11.9447 146.263 11.7145 146.276 11.4912L146.816 12.0996C146.785 12.291 146.698 12.5029 146.557 12.7354C146.415 12.9678 146.226 13.1911 145.989 13.4053C145.757 13.6149 145.479 13.7904 145.155 13.9316C144.836 14.0684 144.476 14.1367 144.075 14.1367C143.574 14.1367 143.134 14.0387 142.756 13.8428C142.382 13.6468 142.09 13.3848 141.881 13.0566C141.676 12.724 141.573 12.3525 141.573 11.9424C141.573 11.5459 141.651 11.1973 141.806 10.8965C141.961 10.5911 142.184 10.3382 142.476 10.1377C142.767 9.93262 143.118 9.77767 143.528 9.67285C143.938 9.56803 144.396 9.51562 144.902 9.51562H146.372ZM150.904 10.4727H152.271L150.132 14H148.765L150.904 10.4727ZM151.964 6.60352H155.054V14H153.789V7.62891H151.964C151.604 7.62891 151.31 7.69043 151.082 7.81348C150.854 7.93197 150.688 8.08691 150.583 8.27832C150.478 8.46973 150.426 8.66797 150.426 8.87305C150.426 9.07357 150.474 9.26725 150.569 9.4541C150.665 9.63639 150.815 9.78678 151.021 9.90527C151.226 10.0238 151.49 10.083 151.813 10.083H154.131V11.1221H151.813C151.39 11.1221 151.014 11.0651 150.686 10.9512C150.357 10.8372 150.079 10.68 149.852 10.4795C149.624 10.2744 149.451 10.0352 149.332 9.76172C149.214 9.48372 149.154 9.18294 149.154 8.85938C149.154 8.53581 149.216 8.2373 149.339 7.96387C149.466 7.69043 149.649 7.45117 149.886 7.24609C150.127 7.04102 150.421 6.88379 150.768 6.77441C151.118 6.66048 151.517 6.60352 151.964 6.60352ZM160.229 10.3838V10.2266C160.229 9.69336 160.306 9.19889 160.461 8.74316C160.616 8.28288 160.839 7.88411 161.131 7.54688C161.423 7.20508 161.776 6.94076 162.19 6.75391C162.605 6.5625 163.07 6.4668 163.585 6.4668C164.104 6.4668 164.572 6.5625 164.986 6.75391C165.406 6.94076 165.761 7.20508 166.053 7.54688C166.349 7.88411 166.575 8.28288 166.729 8.74316C166.884 9.19889 166.962 9.69336 166.962 10.2266V10.3838C166.962 10.917 166.884 11.4115 166.729 11.8672C166.575 12.3229 166.349 12.7217 166.053 13.0635C165.761 13.4007 165.408 13.665 164.993 13.8564C164.583 14.0433 164.118 14.1367 163.599 14.1367C163.079 14.1367 162.612 14.0433 162.197 13.8564C161.783 13.665 161.427 13.4007 161.131 13.0635C160.839 12.7217 160.616 12.3229 160.461 11.8672C160.306 11.4115 160.229 10.917 160.229 10.3838ZM161.493 10.2266V10.3838C161.493 10.7529 161.536 11.1016 161.623 11.4297C161.71 11.7533 161.84 12.0404 162.013 12.291C162.19 12.5417 162.411 12.7399 162.676 12.8857C162.94 13.027 163.248 13.0977 163.599 13.0977C163.945 13.0977 164.248 13.027 164.508 12.8857C164.772 12.7399 164.991 12.5417 165.164 12.291C165.337 12.0404 165.467 11.7533 165.554 11.4297C165.645 11.1016 165.69 10.7529 165.69 10.3838V10.2266C165.69 9.86198 165.645 9.5179 165.554 9.19434C165.467 8.86621 165.335 8.57682 165.157 8.32617C164.984 8.07096 164.765 7.87044 164.501 7.72461C164.241 7.57878 163.936 7.50586 163.585 7.50586C163.239 7.50586 162.933 7.57878 162.669 7.72461C162.409 7.87044 162.19 8.07096 162.013 8.32617C161.84 8.57682 161.71 8.86621 161.623 9.19434C161.536 9.5179 161.493 9.86198 161.493 10.2266ZM173.292 3.38379H174.331C174.331 3.8304 174.263 4.18587 174.126 4.4502C173.989 4.70996 173.802 4.91048 173.565 5.05176C173.333 5.19303 173.069 5.30013 172.772 5.37305C172.481 5.44596 172.178 5.5166 171.863 5.58496C171.471 5.66699 171.107 5.79688 170.77 5.97461C170.437 6.14779 170.15 6.39388 169.908 6.71289C169.671 7.0319 169.496 7.44661 169.382 7.95703C169.272 8.46745 169.243 9.09863 169.293 9.85059V10.4795H168.254V9.85059C168.254 9.00749 168.334 8.27148 168.493 7.64258C168.657 7.01367 168.887 6.48275 169.184 6.0498C169.48 5.61686 169.831 5.27279 170.236 5.01758C170.646 4.76237 171.098 4.58691 171.59 4.49121C171.945 4.42285 172.251 4.34993 172.506 4.27246C172.761 4.19043 172.955 4.08105 173.087 3.94434C173.224 3.80762 173.292 3.62077 173.292 3.38379ZM171.795 7.02734C172.278 7.02734 172.709 7.11165 173.087 7.28027C173.465 7.44889 173.786 7.68359 174.051 7.98438C174.315 8.28516 174.516 8.64062 174.652 9.05078C174.794 9.45638 174.864 9.89844 174.864 10.377V10.5273C174.864 11.0423 174.789 11.5208 174.639 11.9629C174.493 12.4004 174.276 12.7832 173.989 13.1113C173.707 13.4349 173.36 13.6878 172.95 13.8701C172.545 14.0524 172.082 14.1436 171.562 14.1436C171.043 14.1436 170.578 14.0524 170.168 13.8701C169.762 13.6878 169.416 13.4349 169.129 13.1113C168.842 12.7832 168.623 12.4004 168.473 11.9629C168.327 11.5208 168.254 11.0423 168.254 10.5273V10.377C168.254 10.263 168.274 10.1514 168.315 10.042C168.356 9.93262 168.407 9.82096 168.466 9.70703C168.53 9.5931 168.587 9.47233 168.637 9.34473C168.805 8.93457 169.035 8.55404 169.327 8.20312C169.623 7.85221 169.977 7.56966 170.387 7.35547C170.801 7.13672 171.271 7.02734 171.795 7.02734ZM171.549 8.05957C171.084 8.05957 170.701 8.16667 170.4 8.38086C170.104 8.59505 169.883 8.87988 169.737 9.23535C169.591 9.58626 169.519 9.9668 169.519 10.377V10.5273C169.519 10.8737 169.56 11.2018 169.642 11.5117C169.724 11.8216 169.847 12.0973 170.011 12.3389C170.179 12.5758 170.391 12.7627 170.646 12.8994C170.906 13.0361 171.212 13.1045 171.562 13.1045C171.913 13.1045 172.216 13.0361 172.472 12.8994C172.727 12.7627 172.937 12.5758 173.101 12.3389C173.265 12.0973 173.388 11.8216 173.47 11.5117C173.552 11.2018 173.593 10.8737 173.593 10.5273V10.377C173.593 10.0671 173.552 9.77311 173.47 9.49512C173.388 9.21712 173.262 8.97103 173.094 8.75684C172.93 8.54264 172.718 8.37402 172.458 8.25098C172.203 8.12337 171.9 8.05957 171.549 8.05957ZM181.242 6.60352V7.64941H177.667V6.60352H181.242ZM182.356 6.60352V14H181.092V6.60352H182.356ZM177.359 6.60352H178.631L178.439 10.1719C178.408 10.7233 178.355 11.2109 178.282 11.6348C178.214 12.054 178.118 12.4141 177.995 12.7148C177.877 13.0156 177.726 13.2617 177.544 13.4531C177.366 13.64 177.152 13.779 176.901 13.8701C176.651 13.9567 176.361 14 176.033 14H175.637V12.8857L175.91 12.8652C176.106 12.8516 176.272 12.806 176.409 12.7285C176.55 12.651 176.669 12.5371 176.765 12.3867C176.86 12.2318 176.938 12.0335 176.997 11.792C177.061 11.5505 177.109 11.2633 177.141 10.9307C177.177 10.598 177.204 10.2106 177.223 9.76855L177.359 6.60352ZM188.755 12.7354V8.92773C188.755 8.63607 188.696 8.38314 188.577 8.16895C188.463 7.9502 188.29 7.78158 188.058 7.66309C187.825 7.5446 187.538 7.48535 187.196 7.48535C186.877 7.48535 186.597 7.54004 186.355 7.64941C186.118 7.75879 185.932 7.90234 185.795 8.08008C185.663 8.25781 185.597 8.44922 185.597 8.6543H184.332C184.332 8.38997 184.4 8.12793 184.537 7.86816C184.674 7.6084 184.87 7.3737 185.125 7.16406C185.385 6.94987 185.695 6.78125 186.055 6.6582C186.419 6.5306 186.825 6.4668 187.271 6.4668C187.809 6.4668 188.283 6.55794 188.693 6.74023C189.108 6.92253 189.432 7.19824 189.664 7.56738C189.901 7.93197 190.02 8.38997 190.02 8.94141V12.3867C190.02 12.6328 190.04 12.8949 190.081 13.1729C190.127 13.4508 190.193 13.6901 190.279 13.8906V14H188.96C188.896 13.8542 188.846 13.6605 188.81 13.4189C188.773 13.1729 188.755 12.945 188.755 12.7354ZM188.974 9.51562L188.987 10.4043H187.709C187.349 10.4043 187.028 10.4339 186.745 10.4932C186.463 10.5479 186.226 10.6322 186.034 10.7461C185.843 10.86 185.697 11.0036 185.597 11.1768C185.496 11.3454 185.446 11.5436 185.446 11.7715C185.446 12.0039 185.499 12.2158 185.604 12.4072C185.708 12.5986 185.866 12.7513 186.075 12.8652C186.289 12.9746 186.551 13.0293 186.861 13.0293C187.249 13.0293 187.59 12.9473 187.887 12.7832C188.183 12.6191 188.418 12.4186 188.591 12.1816C188.769 11.9447 188.864 11.7145 188.878 11.4912L189.418 12.0996C189.386 12.291 189.299 12.5029 189.158 12.7354C189.017 12.9678 188.828 13.1911 188.591 13.4053C188.358 13.6149 188.08 13.7904 187.757 13.9316C187.438 14.0684 187.078 14.1367 186.677 14.1367C186.175 14.1367 185.736 14.0387 185.357 13.8428C184.984 13.6468 184.692 13.3848 184.482 13.0566C184.277 12.724 184.175 12.3525 184.175 11.9424C184.175 11.5459 184.252 11.1973 184.407 10.8965C184.562 10.5911 184.785 10.3382 185.077 10.1377C185.369 9.93262 185.72 9.77767 186.13 9.67285C186.54 9.56803 186.998 9.51562 187.504 9.51562H188.974ZM194.969 13.0977C195.27 13.0977 195.548 13.0361 195.803 12.9131C196.058 12.79 196.268 12.6214 196.432 12.4072C196.596 12.1885 196.689 11.9401 196.712 11.6621H197.915C197.892 12.0996 197.744 12.5075 197.471 12.8857C197.202 13.2594 196.849 13.5625 196.411 13.7949C195.974 14.0228 195.493 14.1367 194.969 14.1367C194.413 14.1367 193.927 14.0387 193.513 13.8428C193.103 13.6468 192.761 13.3779 192.487 13.0361C192.218 12.6943 192.016 12.3024 191.879 11.8604C191.747 11.4137 191.681 10.9421 191.681 10.4453V10.1582C191.681 9.66146 191.747 9.19206 191.879 8.75C192.016 8.30339 192.218 7.90918 192.487 7.56738C192.761 7.22559 193.103 6.95671 193.513 6.76074C193.927 6.56478 194.413 6.4668 194.969 6.4668C195.548 6.4668 196.053 6.58529 196.486 6.82227C196.919 7.05469 197.259 7.3737 197.505 7.7793C197.756 8.18034 197.892 8.63607 197.915 9.14648H196.712C196.689 8.84115 196.603 8.56543 196.452 8.31934C196.306 8.07324 196.106 7.87728 195.851 7.73145C195.6 7.58105 195.306 7.50586 194.969 7.50586C194.581 7.50586 194.256 7.58333 193.991 7.73828C193.731 7.88867 193.524 8.09375 193.369 8.35352C193.219 8.60872 193.109 8.89355 193.041 9.20801C192.977 9.5179 192.945 9.83464 192.945 10.1582V10.4453C192.945 10.7689 192.977 11.0879 193.041 11.4023C193.105 11.7168 193.212 12.0016 193.362 12.2568C193.517 12.512 193.725 12.7171 193.984 12.8721C194.249 13.0225 194.577 13.0977 194.969 13.0977ZM202.352 6.60352V14H201.08V6.60352H202.352ZM204.833 6.60352V7.62891H198.646V6.60352H204.833ZM207.116 9.14648H209.338C209.935 9.14648 210.438 9.2513 210.849 9.46094C211.259 9.66602 211.569 9.95085 211.778 10.3154C211.993 10.6755 212.1 11.0856 212.1 11.5459C212.1 11.8877 212.04 12.209 211.922 12.5098C211.803 12.806 211.626 13.0658 211.389 13.2891C211.156 13.5124 210.867 13.6878 210.521 13.8154C210.179 13.9385 209.785 14 209.338 14H206.193V6.60352H207.458V12.9609H209.338C209.702 12.9609 209.994 12.8949 210.213 12.7627C210.432 12.6305 210.589 12.4596 210.685 12.25C210.78 12.0404 210.828 11.8216 210.828 11.5938C210.828 11.3704 210.78 11.1517 210.685 10.9375C210.589 10.7233 210.432 10.5456 210.213 10.4043C209.994 10.2585 209.702 10.1855 209.338 10.1855H207.116V9.14648Z" fill="#333232"/>
<path d="M230 5L223.5 13L217 5" stroke="#333232" stroke-linecap="round" stroke-linejoin="round"/>
<path d="M11.4706 5.9C11.4706 3.47 9.57433 1.5 7.23529 1.5C4.89626 1.5 3 3.47 3 5.9C3 9.1 7.23529 13.5 7.23529 13.5C7.23529 13.5 11.4706 9.1 11.4706 5.9Z" stroke="#333232" stroke-miterlimit="10" stroke-linejoin="round"/>
<path d="M7.23529 7.5C8.08587 7.5 8.7754 6.78366 8.7754 5.9C8.7754 5.01634 8.08587 4.3 7.23529 4.3C6.38472 4.3 5.69519 5.01634 5.69519 5.9C5.69519 6.78366 6.38472 7.5 7.23529 7.5Z" stroke="#333232" stroke-miterlimit="10" stroke-linejoin="round"/>
</svg>
