<svg width="40" height="180" viewBox="0 0 40 180" fill="none" xmlns="http://www.w3.org/2000/svg">
<g clip-path="url(#clip0_1_34)">
<rect width="40" height="40" rx="20" fill="black"/>
<path d="M9.704 26V16.06H18.02V18.02H12.084V19.812H15.626V21.814H12.084V23.942H18.566V26H9.704ZM29.9464 16.06V26.028H28.0144L22.5964 19.154V26H20.2724V16.06H22.9744L27.6784 22.15V16.06H29.9464Z" fill="white" fill-opacity="0.4"/>
</g>
<rect x="0.5" y="0.5" width="39" height="39" rx="19.5" stroke="white" stroke-opacity="0.4"/>
<g clip-path="url(#clip1_1_34)">
<rect y="70" width="40" height="40" rx="20" fill="black"/>
<path d="M13.922 94.04C14.678 94.04 15.266 93.8067 15.686 93.34C16.106 92.8733 16.316 92.2573 16.316 91.492V86.06H18.668V91.646C18.668 93.0647 18.2247 94.18 17.338 94.992C16.4607 95.804 15.322 96.21 13.922 96.21C12.4567 96.21 11.2947 95.804 10.436 94.992C9.57733 94.18 9.148 93.0647 9.148 91.646V86.06H11.528V91.492C11.528 92.2667 11.7333 92.8873 12.144 93.354C12.564 93.8113 13.1567 94.04 13.922 94.04ZM30.5085 93.928V96H20.4705V94.642L26.1405 88.118H20.6105V86.06H29.8785V87.39L24.1525 93.928H30.5085Z" fill="white" fill-opacity="0.4"/>
</g>
<rect x="0.5" y="70.5" width="39" height="39" rx="19.5" stroke="white" stroke-opacity="0.4"/>
<rect x="0.5" y="140.5" width="39" height="39" rx="19.5" fill="white"/>
<rect x="0.5" y="140.5" width="39" height="39" rx="19.5" stroke="white"/>
<path d="M9.204 166V156.06H15.028C16.1107 156.06 16.9693 156.317 17.604 156.83C18.248 157.343 18.57 158.127 18.57 159.182C18.57 159.854 18.4113 160.428 18.094 160.904C17.7767 161.38 17.3053 161.73 16.68 161.954L18.92 166H16.414L14.314 162.22H11.584V166H9.204ZM14.776 158.104H11.584V160.218H14.776C15.6813 160.218 16.134 159.873 16.134 159.182C16.134 158.781 16.0127 158.501 15.77 158.342C15.5367 158.183 15.2053 158.104 14.776 158.104ZM25.3243 164.04C26.0803 164.04 26.6683 163.807 27.0883 163.34C27.5083 162.873 27.7183 162.257 27.7183 161.492V156.06H30.0703V161.646C30.0703 163.065 29.627 164.18 28.7403 164.992C27.863 165.804 26.7243 166.21 25.3243 166.21C23.859 166.21 22.697 165.804 21.8383 164.992C20.9797 164.18 20.5503 163.065 20.5503 161.646V156.06H22.9303V161.492C22.9303 162.267 23.1357 162.887 23.5463 163.354C23.9663 163.811 24.559 164.04 25.3243 164.04Z" fill="black"/>
<defs>
<clipPath id="clip0_1_34">
<rect width="40" height="40" rx="20" fill="white"/>
</clipPath>
<clipPath id="clip1_1_34">
<rect y="70" width="40" height="40" rx="20" fill="white"/>
</clipPath>
</defs>
</svg>
